<svg xmlns="http://www.w3.org/2000/svg" version="1.1" xmlns:xlink="http://www.w3.org/1999/xlink" xmlns:svgjs="http://svgjs.dev/svgjs" viewBox="0 0 800 800"><defs><filter id="llleaves-blur-2" x="-100%" y="-100%" width="400%" height="400%"><feGaussianBlur in="SourceGraphic" stdDeviation="2"></feGaussianBlur></filter><filter id="llleaves-blur-3" x="-100%" y="-100%" width="400%" height="400%"><feGaussianBlur in="SourceGraphic" stdDeviation="4"></feGaussianBlur></filter><filter id="llleaves-blur-4" x="-100%" y="-100%" width="400%" height="400%"><feGaussianBlur in="SourceGraphic" stdDeviation="12"></feGaussianBlur></filter></defs><g fill="hsl(202.86, 100%, 91.76%)"><path d="M113 512H163C191 512 213 534 213 562H163C135 562 113 540 113 512Z " transform="matrix(0.5356800484534476,-0.28482613411557606,0.28482613411557606,0.5356800484534476,-77.26748191797631,295.76647384133753)" opacity="0.93"></path><path d="M654 688H704C732 688 754 710 754 738H704C676 738 654 716 654 688Z " transform="matrix(-0.1936748180113885,-0.4350007634327854,0.4350007634327854,-0.1936748180113885,530.1915275524416,1157.330682698801)" opacity="0.73"></path><path d="M67 622H117C145 622 167 644 167 672H117C89 672 67 650 67 622Z " transform="matrix(0.4271491992108366,-0.3983230722957263,0.3983230722957263,0.4271491992108366,-190.69148408300276,417.2382675691887)" opacity="0.90"></path><path d="M139 590H189C217 590 239 612 239 640H189C161 640 139 618 139 590Z " transform="matrix(0.5716702479689821,-0.23096977270915628,0.23096977270915628,0.5716702479689821,-61.09208708226873,307.07608454110647)" opacity="0.95"></path><path d="M597 532H647C675 532 697 554 697 582H647C619 582 597 560 597 532Z " transform="matrix(-0.17954429090843957,-0.4443877140334294,0.4443877140334294,-0.17954429090843957,515.6411995011402,944.5250210156296)" opacity="0.74"></path><path d="M108 377H158C186 377 208 399 208 427H158C130 427 108 405 108 377Z " transform="matrix(0.5356800484534476,-0.28482613411557606,0.28482613411557606,0.5356800484534476,-41.13755357010629,231.65914971197512)" opacity="0.93"></path><path d="M45 685H95C123 685 145 707 145 735H95C67 735 45 713 45 685Z " transform="matrix(0.37698573436429955,-0.4336724787857022,0.4336724787857022,0.37698573436429955,-248.72110470245707,483.53901408598904)" opacity="0.88"></path><path d="M670 514H720C748 514 770 536 770 564H720C692 564 670 542 670 514Z " transform="matrix(-0.18671981724263187,-0.4398843231972329,0.4398843231972329,-0.18671981724263187,617.3406182113864,956.3586941957864)" opacity="0.73"></path><path d="M347 616H397C425 616 447 638 447 666H397C369 666 347 644 347 616Z " transform="matrix(0.44339146340623026,-0.3854343187999648,0.3854343187999648,0.44339146340623026,-26.089809323050872,509.8034965201924)" opacity="0.90"></path><path d="M-23 229H27C55 229 77 251 77 279H27C-1 279 -23 257 -23 229Z " transform="matrix(0.10102839830679715,-0.519746052236283,0.519746052236283,0.10102839830679715,-107.7432640222994,242.37193024045317)" opacity="0.81"></path><path d="M713 620H763C791 620 813 642 813 670H763C735 670 713 648 713 620Z " transform="matrix(-0.15757023641369503,-0.4576171945906042,0.4576171945906042,-0.15757023641369503,588.0629998727096,1095.7947219594644)" opacity="0.74"></path><path d="M492 684H542C570 684 592 706 592 734H542C514 734 492 712 492 684Z " transform="matrix(-9.402943884820659e-17,-0.5118724240255697,0.5118724240255697,-9.402943884820659e-17,179.08245136587118,986.4348538218587)" opacity="0.79"></path><path d="M136 311H186C214 311 236 333 236 361H186C158 361 136 339 136 311Z " transform="matrix(0.5716702479689821,-0.23096977270915628,0.23096977270915628,0.5716702479689821,2.0634902474928083,186.87917440632506)" opacity="0.95"></path><path d="M710 10H760C788 10 810 32 810 60H760C732 60 710 38 710 10Z " transform="matrix(-0.3801546133567809,-0.14592768382046237,0.14592768382046237,-0.3801546133567809,1043.8100372174374,159.21045117103873)" opacity="0.62"></path><path d="M327 487H377C405 487 427 509 427 537H377C349 537 327 515 327 487Z " transform="matrix(0.48116303662649734,-0.3495854090133516,0.3495854090133516,0.48116303662649734,16.613805776974516,397.4382244452669)" opacity="0.91"></path><path d="M658 356H708C736 356 758 378 758 406H708C680 406 658 384 658 356Z " transform="matrix(-0.1936748180113885,-0.4350007634327854,0.4350007634327854,-0.1936748180113885,679.3864802841719,762.7706461727511)" opacity="0.73"></path><path d="M722 390H772C800 390 822 412 822 440H772C744 440 722 418 722 390Z " transform="matrix(-0.1345777948536134,-0.4693285455927506,0.4693285455927506,-0.1345777948536134,681.122711205998,833.171422061853)" opacity="0.75"></path><path d="M712 159H762C790 159 812 181 812 209H762C734 209 712 187 712 159Z " transform="matrix(-0.15757023641369503,-0.4576171945906042,0.4576171945906042,-0.15757023641369503,797.8669563425644,561.6972257781604)" opacity="0.74"></path><path d="M721 744H771C799 744 821 766 821 794H771C743 794 721 772 721 744Z " transform="matrix(-0.1345777948536134,-0.4693285455927506,0.4693285455927506,-0.1345777948536134,513.8458282713107,1234.3426328944395)" opacity="0.75"></path><path d="M-16 80H34C62 80 84 102 84 130H34C6 130 -16 108 -16 80Z " transform="matrix(-0.1266683004131099,-0.4727325328501242,0.4727325328501242,-0.1266683004131099,-11.3301937352173,134.37307766028076)" opacity="0.75"></path><path d="M418 161H468C496 161 518 183 518 211H468C440 211 418 189 418 161Z " transform="matrix(0.20429611242580836,-0.505650622069176,0.505650622069176,0.20429611242580836,278.33840367985493,384.645414217174)" opacity="0.84"></path><path d="M485 118H535C563 118 585 140 585 168H535C507 168 485 146 485 118Z " transform="matrix(-0.06124161648418996,-0.4987729404564038,0.4987729404564038,-0.06124161648418996,496.4397343337759,418.6010743014152)" opacity="0.77"></path><path d="M-13 150H37C65 150 87 172 87 200H37C9 200 -13 178 -13 150Z " transform="matrix(0.1289750825165275,-0.5172908018585014,0.5172908018585014,0.1289750825165275,-58.29796837834927,171.56912022837224)" opacity="0.82"></path><path d="M193 658H243C271 658 293 680 293 708H243C215 708 193 686 193 658Z " transform="matrix(0.59253070794586,-0.1925248976344379,0.1925248976344379,0.59253070794586,-32.47946711516505,325.08507659814603)" opacity="0.96"></path><path d="M454 542H504C532 542 554 564 554 592H504C476 592 454 570 454 542Z " transform="matrix(0.09168838329734372,-0.5199906612643667,0.5199906612643667,0.09168838329734372,162.95434988124288,777.087979947647)" opacity="0.81"></path><path d="M597 745H647C675 745 697 767 697 795H647C619 795 597 773 597 745Z " transform="matrix(-0.17954429090843957,-0.4443877140334294,0.4443877140334294,-0.17954429090843957,420.98661641201977,1195.7679549791274)" opacity="0.74"></path><path d="M351 187H401C429 187 451 209 451 237H401C373 237 351 215 351 187Z " transform="matrix(0.4026964293029778,-0.41700435979845524,0.41700435979845524,0.4026964293029778,151.11380757223344,293.84710526694926)" opacity="0.89"></path><path d="M180 518H230C258 518 280 540 280 568H230C202 568 180 546 180 518Z " transform="matrix(0.591548250799129,-0.1922056779567602,0.1922056779567602,0.591548250799129,-10.423780814320452,265.99660574612784)" opacity="0.96"></path><path d="M356 109H406C434 109 456 131 456 159H406C378 159 356 137 356 109Z " transform="matrix(0.377381532418768,-0.4341277923632022,0.4341277923632022,0.377381532418768,194.60997366131107,259.6867583553452)" opacity="0.88"></path><path d="M121 670H171C199 670 221 692 221 720H171C143 720 121 698 121 670Z " transform="matrix(0.554821803393534,-0.2587176558337723,0.2587176558337723,0.554821803393534,-103.68329918476604,353.6395657890689)" opacity="0.94"></path><path d="M516 508H566C594 508 616 530 616 558H566C538 558 516 536 516 508Z " transform="matrix(-0.043974448254086015,-0.502630243529275,0.502630243529275,-0.043974448254086015,322.9876179107091,840.9270987569975)" opacity="0.78"></path><path d="M62 562H112C140 562 162 584 162 612H112C84 612 62 590 62 562Z " transform="matrix(0.4271491992108366,-0.3983230722957263,0.3983230722957263,0.4271491992108366,-169.65635374920504,380.87560416036024)" opacity="0.90"></path><path d="M718 313H768C796 313 818 335 818 363H768C740 363 718 341 718 313Z " transform="matrix(-0.1345777948536134,-0.4693285455927506,0.4693285455927506,-0.1345777948536134,712.7226980372254,743.9316176757538)" opacity="0.75"></path><path d="M-7 745H43C71 745 93 767 93 795H43C15 795 -7 773 -7 745Z " transform="matrix(0.17636049268877502,-0.5121880612590085,0.5121880612590085,0.17636049268877502,-358.9683083550538,656.2265072637806)" opacity="0.83"></path><path d="M369 548H419C447 548 469 570 469 598H419C391 598 369 576 369 548Z " transform="matrix(0.3596404423368474,-0.4441189596167809,0.4441189596167809,0.3596404423368474,13.830490800445546,553.0118706204177)" opacity="0.88"></path><path d="M171 7H221C249 7 271 29 271 57H221C193 57 171 35 171 7Z " transform="matrix(0.19500947241579877,-0.5080170441021061,0.5080170441021061,0.19500947241579877,161.64636118484106,138.0314636292599)" opacity="0.84"></path><path d="M217 60H267C295 60 317 82 317 110H267C239 110 217 88 217 60Z " transform="matrix(0.47409220808698743,-0.357254103526126,0.357254103526126,0.47409220808698743,110.05078164105365,140.08900795408175)" opacity="0.91"></path><path d="M79 743H129C157 743 179 765 179 793H129C101 793 79 771 79 743Z " transform="matrix(0.4669622356483108,-0.36483088283346843,0.36483088283346843,0.4669622356483108,-211.42824641473584,456.43618690761474)" opacity="0.91"></path><path d="M305 359H355C383 359 405 381 405 409H355C327 409 305 387 305 359Z " transform="matrix(0.5099779240429214,-0.31866957488476527,0.31866957488476527,0.5099779240429214,51.58872020901299,301.29617625160984)" opacity="0.92"></path><path d="M592 328H642C670 328 692 350 692 378H642C614 378 592 356 592 328Z " transform="matrix(-0.17954429090843957,-0.4443877140334294,0.4443877140334294,-0.17954429090843957,600.3985717094176,701.6760471001409)" opacity="0.74"></path><path d="M385 345H435C463 345 485 367 485 395H435C407 395 385 373 385 345Z " transform="matrix(0.30659136900479533,-0.4721093073384331,0.4721093073384331,0.30659136900479533,126.9523107676938,461.92874216044413)" opacity="0.87"></path><path d="M722 550H772C800 550 822 572 822 600H772C744 600 722 578 722 550Z " transform="matrix(-0.1345777948536134,-0.4693285455927506,0.4693285455927506,-0.1345777948536134,606.0301439111579,1014.7038692384311)" opacity="0.75"></path><path d="M156 737H206C234 737 256 759 256 787H206C178 787 156 765 156 737Z " transform="matrix(0.5824587272538221,-0.2119976394089676,0.2119976394089676,0.5824587272538221,-75.52869904392065,361.83796355083496)" opacity="0.95"></path><path d="M338 680H388C416 680 438 702 438 730H388C360 730 338 708 338 680Z " transform="matrix(0.44339146340623026,-0.3854343187999648,0.3854343187999648,0.44339146340623026,-55.76708255559254,541.9575339929941)" opacity="0.90"></path><path d="M408 417H458C486 417 508 439 508 467H458C430 467 408 445 408 417Z " transform="matrix(0.2515924808174107,-0.4937780459583536,0.4937780459583536,0.2515924808174107,124.52074747203363,556.9464685276304)" opacity="0.85"></path><path d="M296 228H346C374 228 396 250 396 278H346C318 278 296 256 296 228Z " transform="matrix(0.5361444237070451,-0.28507304681774404,0.28507304681774404,0.5361444237070451,88.37054855247317,215.99073500105703)" opacity="0.93"></path><path d="M670 428H720C748 428 770 450 770 478H720C692 478 670 456 670 428Z " transform="matrix(-0.18671981724263187,-0.4398843231972329,0.4398843231972329,-0.18671981724263187,655.1706700063485,854.3007899129199)" opacity="0.73"></path><path d="M212 445H262C290 445 312 467 312 495H262C234 495 212 473 212 445Z " transform="matrix(0.5924650564724617,-0.1925035661776441,0.1925035661776441,0.5924650564724617,16.297479100722285,241.97735779648573)" opacity="0.96"></path><path d="M529 569H579C607 569 629 591 629 619H579C551 619 529 597 529 569Z " transform="matrix(-0.0864541453975718,-0.4903058230238351,0.4903058230238351,-0.0864541453975718,337.81529130903607,929.2408338969583)" opacity="0.76"></path><path d="M415 671H465C493 671 515 693 515 721H465C437 721 415 699 415 671Z " transform="matrix(0.2515924808174107,-0.4937780459583536,0.4937780459583536,0.2515924808174107,4.339976432889898,750.4984247217166)" opacity="0.85"></path><path d="M637 117H687C715 117 737 139 737 167H687C659 167 637 145 637 117Z " transform="matrix(-0.2802097466048521,-0.3586521204258236,0.3586521204258236,-0.2802097466048521,828.5754948170664,428.1837907504298)" opacity="0.70"></path><path d="M659 580H709C737 580 759 602 759 630H709C681 630 659 608 659 580Z " transform="matrix(-0.1936748180113885,-0.4350007634327854,0.4350007634327854,-0.1936748180113885,583.1399840932394,1030.5888061707349)" opacity="0.73"></path><path d="M-14 549H36C64 549 86 571 86 599H36C8 599 -14 577 -14 549Z " transform="matrix(0.17636049268877502,-0.5121880612590085,0.5121880612590085,0.17636049268877502,-264.3449248994667,491.20784740196746)" opacity="0.83"></path><path d="M398 489H448C476 489 498 511 498 539H448C420 539 398 517 398 489Z " transform="matrix(0.30659136900479533,-0.4721093073384331,0.4721093073384331,0.30659136900479533,67.98288271389708,567.9170060191532)" opacity="0.87"></path><path d="M296 558H346C374 558 396 580 396 608H346C318 608 296 586 296 558Z " transform="matrix(0.5361444237070451,-0.28507304681774404,0.28507304681774404,0.5361444237070451,-5.703556897382327,369.0630751777322)" opacity="0.93"></path><path d="M581 254H631C659 254 681 276 681 304H631C603 304 581 282 581 254Z " transform="matrix(-0.16504923786391462,-0.4534690541292993,0.4534690541292993,-0.16504923786391462,608.6282029900556,611.18771051962)" opacity="0.74"></path><path d="M278 434H328C356 434 378 456 378 484H328C300 484 278 462 278 434Z " transform="matrix(0.5549015838489385,-0.25875485807109855,0.25875485807109855,0.5549015838489385,27.223800642913943,289.1717664606575)" opacity="0.94"></path><path d="M346 416H396C424 416 446 438 446 466H396C368 466 346 444 346 416Z " transform="matrix(0.44339146340623026,-0.3854343187999648,0.3854343187999648,0.44339146340623026,50.44044590034838,398.09635488263854)" opacity="0.90"></path><path d="M-19 317H31C59 317 81 339 81 367H31C3 367 -19 345 -19 317Z " transform="matrix(0.10102839830679715,-0.519746052236283,0.519746052236283,0.10102839830679715,-149.8850302123195,323.56041539840015)" opacity="0.81"></path><path d="M295 72H345C373 72 395 94 395 122H345C317 122 295 100 295 72Z " transform="matrix(0.4429393259552105,-0.38504128171012336,0.38504128171012336,0.4429393259552105,154.8369282195704,186.87412757233716)" opacity="0.90"></path><path d="M136 79H186C214 79 236 101 236 129H186C158 129 136 107 136 79Z " transform="matrix(0.42716435903907096,-0.398337209064258,0.398337209064258,0.42716435903907096,65.12035947604998,133.6656275458886)" opacity="0.90"></path><path d="M53 65H103C131 65 153 87 153 115H103C75 115 53 93 53 65Z " transform="matrix(0.09171606951607082,-0.5201476776132876,0.5201476776132876,0.09171606951607082,46.73995385464882,135.32076453772225)" opacity="0.81"></path><path d="M715 236H765C793 236 815 258 815 286H765C737 286 715 264 715 236Z " transform="matrix(-0.15757023641369503,-0.4576171945906042,0.4576171945906042,-0.15757023641369503,766.103143068329,652.2029855657865)" opacity="0.74"></path><path d="M632 24H682C710 24 732 46 732 74H682C654 74 632 52 632 24Z " transform="matrix(-0.37889638430462774,-0.15308407613318586,0.15308407613318586,-0.37889638430462774,932.90621436523,171.96926275375955)" opacity="0.63"></path><path d="M568 470H618C646 470 668 492 668 520H618C590 520 568 498 568 470Z " transform="matrix(-0.16504923786391462,-0.4534690541292993,0.4534690541292993,-0.16504923786391462,495.5332472058961,856.9432481945448)" opacity="0.74"></path><path d="M651 279H701C729 279 751 301 751 329H701C673 329 651 307 651 279Z " transform="matrix(-0.1936748180113885,-0.4350007634327854,0.4350007634327854,-0.1936748180113885,704.5258153424165,667.8126798418446)" opacity="0.73"></path><path d="M630 639H680C708 639 730 661 730 689H680C652 689 630 667 630 639Z " transform="matrix(-0.19348653725153175,-0.4345778779223285,0.4345778779223285,-0.19348653725153175,523.0111343906156,1087.9880177222005)" opacity="0.73"></path><path d="M526 743H576C604 743 626 765 626 793H576C548 793 526 771 526 743Z " transform="matrix(-0.0864541453975718,-0.4903058230238351,0.4903058230238351,-0.0864541453975718,249.24271566669603,1116.8129377270643)" opacity="0.76"></path><path d="M26 270H76C104 270 126 292 126 320H76C48 320 26 298 26 270Z " transform="matrix(0.3155883470360384,-0.46787896543308455,0.46787896543308455,0.3155883470360384,-86.00900917749885,237.4602389972831)" opacity="0.87"></path><path d="M357 14H407C435 14 457 36 457 64H407C379 64 357 42 357 14Z " transform="matrix(0.18575096695540294,-0.5103465873518322,0.5103465873518322,0.18575096695540294,311.49583954242956,239.46677334093502)" opacity="0.83"></path><path d="M-10 615H40C68 615 90 637 90 665H40C12 665 -10 643 -10 615Z " transform="matrix(0.17636049268877502,-0.5121880612590085,0.5121880612590085,0.17636049268877502,-294.85477891331647,547.6168071295443)" opacity="0.83"></path><path d="M414 599H464C492 599 514 621 514 649H464C436 649 414 627 414 599Z " transform="matrix(0.2515924808174107,-0.4937780459583536,0.4937780459583536,0.2515924808174107,39.14358822270884,696.1193052946118)" opacity="0.85"></path><path d="M544 637H594C622 637 644 659 644 687H594C566 687 544 665 544 637Z " transform="matrix(-0.11065926156731996,-0.4793179217449457,0.4793179217449457,-0.11065926156731996,342.423137175834,1019.9712766740636)" opacity="0.76"></path><path d="M168 240H218C246 240 268 262 268 290H218C190 290 168 268 168 240Z " transform="matrix(0.591548250799129,-0.1922056779567602,0.1922056779567602,0.591548250799129,38.10797666724844,150.14055133280453)" opacity="0.96"></path><path d="M378 257H428C456 257 478 279 478 307H428C400 307 378 285 378 257Z " transform="matrix(0.3596404423368474,-0.4441189596167809,0.4441189596167809,0.3596404423368474,148.83234406789705,370.66430997699126)" opacity="0.88"></path><path d="M567 173H617C645 173 667 195 667 223H617C589 223 567 201 567 173Z " transform="matrix(-0.16504923786391462,-0.4534690541292993,0.4534690541292993,-0.16504923786391462,629.048507044434,510.47015549483274)" opacity="0.74"></path><path d="M709 83H759C787 83 809 105 809 133H759C731 133 709 111 709 83Z " transform="matrix(-0.3135697151492591,-0.31356971514925897,0.31356971514925897,-0.3135697151492591,963.1338845621676,379.86494303440753)" opacity="0.68"></path><path d="M515 436H565C593 436 615 458 615 486H565C537 486 515 464 515 436Z " transform="matrix(-0.043974448254086015,-0.502630243529275,0.502630243529275,-0.043974448254086015,358.13302099656283,765.2583082391741)" opacity="0.78"></path><path d="M440 235H490C518 235 540 257 540 285H490C462 285 440 263 440 235Z " transform="matrix(0.14790623538387354,-0.5158103416118535,0.5158103416118535,0.14790623538387354,283.4152558428201,474.29144619000107)" opacity="0.82"></path><path d="M602 406H652C680 406 702 428 702 456H652C624 456 602 434 602 406Z " transform="matrix(-0.18637518581828663,-0.439072422440852,0.439072422440852,-0.18637518581828663,584.2764070815157,797.6029245191171)" opacity="0.73"></path><path d="M199 306H249C277 306 299 328 299 356H249C221 356 199 334 199 306Z " transform="matrix(0.59253070794586,-0.1925248976344379,0.1925248976344379,0.59253070794586,37.73411260448191,182.81103518089537)" opacity="0.96"></path></g><g fill="none" stroke-width="3" stroke="hsl(202.86, 100%, 91.76%)"><path d="M511 251H561C589 251 611 273 611 301H561C533 301 511 279 511 251Z " transform="matrix(-0.043974448254086015,-0.502630243529275,0.502630243529275,-0.043974448254086015,446.9437182564624,570.1125143380509)" opacity="0.78"></path><path d="M452 742H502C530 742 552 764 552 792H502C474 792 452 770 452 742Z " transform="matrix(0.09168838329734372,-0.5199906612643667,0.5199906612643667,0.09168838329734372,57.13959439496426,957.7103219656494)" opacity="0.81"></path><path d="M519 318H569C597 318 619 340 619 368H569C541 368 519 346 519 318Z " transform="matrix(-0.0864541453975718,-0.4903058230238351,0.4903058230238351,-0.0864541453975718,450.01751143404294,651.6377851719293)" opacity="0.76"></path><path d="M-25 394H25C53 394 75 416 75 444H25C-3 444 -25 422 -25 394Z " transform="matrix(0.10102839830679715,-0.519746052236283,0.519746052236283,0.10102839830679715,-195.29930584467252,389.6627524153591)" opacity="0.81"></path><path d="M267 5H317C345 5 367 27 367 55H317C289 55 267 33 267 5Z " transform="matrix(0.2880210872617962,-0.47934758601409566,0.47934758601409566,0.2880210872617962,211.31688775758772,173.31255214861443)" opacity="0.86"></path><path d="M35 371H85C113 371 135 393 135 421H85C57 421 35 399 35 371Z " transform="matrix(0.37698573436429955,-0.4336724787857022,0.4336724787857022,0.37698573436429955,-118.77808902010352,283.5758098885221)" opacity="0.88"></path><path d="M446 4H496C524 4 546 26 546 54H496C468 54 446 32 446 4Z " transform="matrix(-0.12683842953296606,-0.4733674633692744,0.4733674633692744,-0.12683842953296606,545.1842046106422,267.4685762876161)" opacity="0.75"></path><path d="M565 92H615C643 92 665 114 665 142H615C587 142 565 120 565 92Z " transform="matrix(-0.23339981437304833,-0.40426033697126396,0.40426033697126396,-0.23339981437304833,711.2424264137868,392.92788551897394)" opacity="0.72"></path><path d="M721 471H771C799 471 821 493 821 521H771C743 521 721 499 721 471Z " transform="matrix(-0.1345777948536134,-0.4693285455927506,0.4693285455927506,-0.1345777948536134,641.9725212181315,924.602894899403)" opacity="0.75"></path><path d="M71 131H121C149 131 171 153 171 181H121C93 181 71 159 71 131Z " transform="matrix(0.3947682813877532,-0.4233371526704464,0.4233371526704464,0.3947682813877532,7.192442135492215,145.63994357663452)" opacity="0.89"></path><path d="M226 206H276C304 206 326 228 326 256H276C248 256 226 234 226 206Z " transform="matrix(0.5913745290226164,-0.1921492323299067,0.1921492323299067,0.5913745290226164,68.39415732154941,147.42567191882983)" opacity="0.96"></path><path d="M381 740H431C459 740 481 762 481 790H431C403 790 381 768 381 740Z " transform="matrix(0.3596404423368474,-0.4441189596167809,0.4441189596167809,0.3596404423368474,-63.75603475401857,681.2903332071443)" opacity="0.88"></path><path d="M43 499H93C121 499 143 521 143 549H93C65 549 43 527 43 499Z " transform="matrix(0.37698573436429955,-0.4336724787857022,0.4336724787857022,0.37698573436429955,-169.3040521795878,366.7910157201773)" opacity="0.88"></path><path d="M459 465H509C537 465 559 487 559 515H509C481 515 459 493 459 465Z " transform="matrix(0.09168838329734372,-0.5199906612643667,0.5199906612643667,0.09168838329734372,207.53518888211244,709.7479387678642)" opacity="0.81"></path><path d="M175 378H225C253 378 275 400 275 428H225C197 428 175 406 175 378Z " transform="matrix(0.591548250799129,-0.1922056779567602,0.1922056779567602,0.591548250799129,14.442755353621607,207.85233246822207)" opacity="0.96"></path><path d="M251 507H301C329 507 351 529 351 557H301C273 557 251 535 251 507Z " transform="matrix(0.571532865473566,-0.23091426657803746,0.23091426657803746,0.571532865473566,6.122217672940735,297.4497098080522)" opacity="0.95"></path><path d="M157 154H207C235 154 257 176 257 204H207C179 204 157 182 157 154Z " transform="matrix(0.5711372251189566,-0.23075441749877657,0.23075441749877657,0.5711372251189566,47.46955366809496,124.5326011259535)" opacity="0.95"></path><path d="M555 7H605C633 7 655 29 655 57H605C577 57 555 35 555 7Z " transform="matrix(-0.36248246998666594,-0.21780144130282714,0.21780144130282714,-0.36248246998666594,817.3322482202425,175.36931102778374)" opacity="0.65"></path><path d="M629 471H679C707 471 729 493 729 521H679C651 521 629 499 629 471Z " transform="matrix(-0.19348653725153175,-0.4345778779223285,0.4345778779223285,-0.19348653725153175,594.8267313443151,887.0477015860208)" opacity="0.73"></path><path d="M465 380H515C543 380 565 402 565 430H515C487 430 465 408 465 380Z " transform="matrix(0.09168838329734372,-0.5199906612643667,0.5199906612643667,0.09168838329734372,257.1842647897995,635.6613953157246)" opacity="0.81"></path><path d="M93 256H143C171 256 193 278 193 306H143C115 306 93 284 93 256Z " transform="matrix(0.5033274626016792,-0.3268646760783664,0.3268646760783664,0.5033274626016792,-20.824801130061076,186.30663168813456)" opacity="0.92"></path><path d="M-20 681H30C58 681 80 703 80 731H30C2 731 -20 709 -20 681Z " transform="matrix(0.10102839830679715,-0.519746052236283,0.519746052236283,0.10102839830679715,-339.97156482801967,650.2663323624897)" opacity="0.81"></path><path d="M494 184H544C572 184 594 206 594 234H544C516 234 494 212 494 184Z " transform="matrix(-9.402943884820659e-17,-0.5118724240255697,0.5118724240255697,-9.402943884820659e-17,437.018663378656,487.45859866990986)" opacity="0.79"></path><path d="M87 7H137C165 7 187 29 187 57H137C109 57 87 35 87 7Z " transform="matrix(-0.06954268423857347,-0.494821909844473,0.494821909844473,-0.06954268423857347,130.69304662566142,102.01596754432715)" opacity="0.77"></path><path d="M642 200H692C720 200 742 222 742 250H692C664 250 642 228 642 200Z " transform="matrix(-0.19337664454615852,-0.43433105486487633,0.43433105486487633,-0.19337664454615852,728.0921506813445,569.0668349893801)" opacity="0.73"></path><path d="M499 47H549C577 47 599 69 599 97H549C521 97 499 75 499 47Z " transform="matrix(-0.17239278110198641,-0.4490985488809364,0.4490985488809364,-0.17239278110198641,611.3085413055632,330.9673835749771)" opacity="0.74"></path><path d="M661 746H711C739 746 761 768 761 796H711C683 796 661 774 661 746Z " transform="matrix(-0.1936748180113885,-0.4350007634327854,0.4350007634327854,-0.1936748180113885,513.3172069994198,1229.608827487491)" opacity="0.73"></path><path d="M67 320H117C145 320 167 342 167 370H117C89 370 67 348 67 320Z " transform="matrix(0.4669622356483108,-0.36483088283346843,0.36483088283346843,0.4669622356483108,-63.50123614839896,226.5832419928486)" opacity="0.91"></path><path d="M226 741H276C304 741 326 763 326 791H276C248 791 226 769 226 741Z " transform="matrix(0.5913745290226164,-0.1921492323299067,0.1921492323299067,0.5913745290226164,-34.40568197495065,366.04029889173006)" opacity="0.96"></path><path d="M576 689H626C654 689 676 711 676 739H626C598 739 576 717 576 689Z " transform="matrix(-0.16504923786391462,-0.4534690541292993,0.4534690541292993,-0.16504923786391462,405.5439182544908,1115.7167837197762)" opacity="0.74"></path><path d="M263 686H313C341 686 363 708 363 736H313C285 736 263 714 263 686Z " transform="matrix(0.571532865473566,-0.23091426657803746,0.23091426657803746,0.571532865473566,-30.0698304302108,376.9162980872203)" opacity="0.95"></path><path d="M241 369H291C319 369 341 391 341 419H291C263 419 241 397 241 369Z " transform="matrix(0.5822481610923296,-0.21192099959384064,0.21192099959384064,0.5822481610923296,38.06891128215889,226.26323541142975)" opacity="0.95"></path><path d="M215 581H265C293 581 315 603 315 631H265C237 631 215 609 215 581Z " transform="matrix(0.5924650564724617,-0.1925035661776441,0.1925035661776441,0.5924650564724617,-8.66040106885464,297.97962081476385)" opacity="0.96"></path><path d="M82 438H132C160 438 182 460 182 488H132C104 488 82 466 82 438Z " transform="matrix(0.4669622356483108,-0.36483088283346843,0.36483088283346843,0.4669622356483108,-98.55571385747291,294.95416142884994)" opacity="0.91"></path><path d="M476 617H526C554 617 576 639 576 667H526C498 667 476 645 476 617Z " transform="matrix(0.04529753476147695,-0.5177531915098333,0.5177531915098333,0.04529753476147695,169.77594776615013,885.2571614173041)" opacity="0.80"></path><path d="M541 380H591C619 380 641 402 641 430H591C563 430 541 408 541 380Z " transform="matrix(-0.11065926156731996,-0.4793179217449457,0.4793179217449457,-0.11065926156731996,462.27586527958306,733.0938926860274)" opacity="0.76"></path><path d="M719 681H769C797 681 819 703 819 731H769C741 731 719 709 719 681Z " transform="matrix(-0.1345777948536134,-0.4693285455927506,0.4693285455927506,-0.1345777948536134,541.1443710539468,1161.9255747274763)" opacity="0.75"></path><path d="M285 149H335C363 149 385 171 385 199H335C307 199 285 177 285 149Z " transform="matrix(0.5303194560128708,-0.2939608746294427,0.2939608746294427,0.5303194560128708,106.19379005016523,180.2013076546238)" opacity="0.93"></path><path d="M273 623H323C351 623 373 645 373 673H323C295 673 273 651 273 623Z " transform="matrix(0.5549015838489385,-0.25875485807109855,0.25875485807109855,0.5549015838489385,-23.906359613278937,372.0015928228527)" opacity="0.94"></path><path d="M256 287H306C334 287 356 309 356 337H306C278 337 256 315 256 287Z " transform="matrix(0.571532865473566,-0.23091426657803746,0.23091426657803746,0.571532865473566,59.06569199274114,204.34151154512688)" opacity="0.95"></path><path d="M-6 8H44C72 8 94 30 94 58H44C16 58 -6 36 -6 8Z " transform="matrix(-0.367196721543285,-0.20354046641522477,0.20354046641522477,-0.367196721543285,53.43982035620212,54.0732723331983)" opacity="0.64"></path><path d="M108 193H158C186 193 208 215 208 243H158C130 243 108 221 108 193Z " transform="matrix(0.5356800484534476,-0.28482613411557606,0.28482613411557606,0.5356800484534476,11.270455107159677,146.22427862740943)" opacity="0.93"></path><path d="M-23 479H27C55 479 77 501 77 529H27C-1 529 -23 507 -23 479Z " transform="matrix(0.10102839830679715,-0.519746052236283,0.519746052236283,0.10102839830679715,-237.67977708137016,467.1148306637539)" opacity="0.81"></path><path d="M418 74H468C496 74 518 96 518 124H468C440 124 418 102 418 74Z " transform="matrix(0.08238466828760982,-0.5201563241868982,0.5201563241868982,0.08238466828760982,377.9484991468957,334.27707755899496)" opacity="0.81"></path><path d="M218 126H268C296 126 318 148 318 176H268C240 176 218 154 218 126Z " transform="matrix(0.5716574798439068,-0.23096461405177113,0.23096461405177113,0.5716574798439068,79.92013868001553,126.57823710944473)" opacity="0.95"></path><path d="M446 308H496C524 308 546 330 546 358H496C468 358 446 336 446 308Z " transform="matrix(0.14790623538387354,-0.5158103416118535,0.5158103416118535,0.14790623538387354,250.87366349285153,539.5891530566495)" opacity="0.82"></path><path d="M591 594H641C669 594 691 616 691 644H641C613 644 591 622 591 594Z " transform="matrix(-0.17954429090843957,-0.4443877140334294,0.4443877140334294,-0.17954429090843957,481.01189548561695,1014.9904407677523)" opacity="0.74"></path><path d="M20 435H70C98 435 120 457 120 485H70C42 485 20 463 20 435Z " transform="matrix(0.3155883470360384,-0.46787896543308455,0.46787896543308455,0.3155883470360384,-167.3155083917416,347.5808879437383)" opacity="0.87"></path><path d="M40 199H90C118 199 140 221 140 249H90C62 249 40 227 40 199Z " transform="matrix(0.37698573436429955,-0.4336724787857022,0.4336724787857022,0.37698573436429955,-41.07135134078425,178.58571859311007)" opacity="0.88"></path><path d="M305 744H355C383 744 405 766 405 794H355C327 794 305 772 305 744Z " transform="matrix(0.5099779240429214,-0.31866957488476527,0.31866957488476527,0.5099779240429214,-71.09906612162166,489.9546754950851)" opacity="0.92"></path><path d="M146 447H196C224 447 246 469 246 497H196C168 497 146 475 146 447Z " transform="matrix(0.5716702479689821,-0.23096977270915628,0.23096977270915628,0.5716702479689821,-25.06510132064227,247.4417184096351)" opacity="0.95"></path><path d="M326 297H376C404 297 426 319 426 347H376C348 347 326 325 326 297Z " transform="matrix(0.48116303662649734,-0.3495854090133516,0.3495854090133516,0.48116303662649734,82.51619652613772,298.5096159952881)" opacity="0.91"></path></g></svg>
